Coordinates
version=1
nRows=26
nColumns=24
inDegrees=yes

Units are S.I. units (second, meters, Newtons, ...)
Angles are in degrees.

endheader
time	pelvis_tilt	pelvis_list	pelvis_rotation	pelvis_tx	pelvis_ty	pelvis_tz	hip_flexion_r	hip_adduction_r	hip_rotation_r	knee_angle_r	ankle_angle_r	subtalar_angle_r	mtp_angle_r	hip_flexion_l	hip_adduction_l	hip_rotation_l	knee_angle_l	ankle_angle_l	subtalar_angle_l	mtp_angle_l	lumbar_extension	lumbar_bending	lumbar_rotation
      5.59500000	    -11.11547192	      0.90434428	     -5.71804960	     -1.82673559	     -0.02727351	     -0.27285687	     -2.47725848	      2.77232520	     10.93545310	    -16.80411667	      8.72733832	      5.40816716	     20.92993692	     34.56000418	     -2.04890948	     -0.90061036	     -9.30431373	     -1.04808604	     -0.53401737	      5.73254985	      8.59096790	     -0.63794989	     14.70541028
      5.60000000	    -11.16904432	      1.04035207	     -5.77251302	     -1.82029516	     -0.02800615	     -0.27365282	     -2.53178514	      2.50761014	     10.73537876	    -17.33462374	      8.58363974	      6.03846186	     21.16591243	     34.53672356	     -1.88790208	     -1.05013219	     -9.88100023	     -1.39144682	     -0.78339418	      5.76577020	      8.82006636	     -0.76193810	     14.79857972
      5.60500000	    -11.25564882	      1.20244375	     -5.78198913	     -1.81383249	     -0.02871875	     -0.27452434	     -2.52933588	      2.20683460	     10.41317603	    -17.88648548	      8.40092883	      6.73086246	     21.48236785	     34.55665949	     -1.67851776	     -1.17496226	    -10.43678742	     -1.81682242	     -1.02522477	      5.83974533	      9.09619196	     -0.91424287	     14.82818920
      5.61000000	    -11.34192386	      1.36593629	     -5.77599125	     -1.80749639	     -0.02936240	     -0.27546934	     -2.48415110	      1.89279576	     10.04558564	    -18.48784495	      8.17127675	      7.51853387	     21.92926589	     34.58430878	     -1.45260818	     -1.25524326	    -10.95654848	     -2.32654214	     -1.31017592	      6.00030340	      9.34400809	     -1.07070266	     14.80574536
      5.61500000	    -11.44109533	      1.58738196	     -5.73379627	     -1.80113740	     -0.02992459	     -0.27646293	     -2.41176615	      1.51098569	      9.63810195	    -19.09097660	      7.86686544	      8.29373718	     22.43463290	     34.63550433	     -1.14888180	     -1.34057950	    -11.45758968	     -2.89335743	     -1.57601215	      6.21917208	      9.61816370	     -1.29612668	     14.78752930
      5.62000000	    -11.54898046	      1.86910100	     -5.65623661	     -1.79478046	     -0.03039815	     -0.27746957	     -2.30431412	      1.06342596	      9.20498317	    -19.72494248	      7.50268851	      9.06515544	     22.94938102	     34.70096103	     -0.76732427	     -1.39441317	    -11.94017890	     -3.46408082	     -1.77419495	      6.45067993	      9.90708231	     -1.59854109	     14.73540694
      5.62500000	    -11.64750857	      2.15279850	     -5.53082971	     -1.78852670	     -0.03076889	     -0.27859756	     -2.17961380	      0.59466228	      8.66333736	    -20.37577454	      7.06165318	      9.92457959	     23.60078747	     34.79351346	     -0.33979053	     -1.37892308	    -12.46009108	     -4.08832183	     -2.01322237	      6.74749954	     10.16374133	     -1.90390122	     14.67875480
      5.63000000	    -11.74950272	      2.49470796	     -5.38152385	     -1.78225727	     -0.03103871	     -0.27969243	     -2.02331219	      0.06369917	      8.10095537	    -21.06076903	      6.53173392	     10.75806670	     24.27912467	     34.88425196	      0.16018390	     -1.28030544	    -12.97415499	     -4.67846227	     -2.18292436	      7.03285438	     10.43329780	     -2.29125132	     14.58721450
      5.63500000	    -11.83275082	      2.86174719	     -5.19486426	     -1.77605553	     -0.03120916	     -0.28079153	     -1.86198248	     -0.49348566	      7.53255377	    -21.75243034	      5.78163249	     11.44694432	     25.38026160	     34.95569893	      0.72424129	     -0.98639158	    -13.48494311	     -5.36669118	     -2.50048383	      7.41908093	     10.66951746	     -2.72811485	     14.42760650
      5.64000000	    -11.91536120	      3.23944726	     -4.99547653	     -1.76976540	     -0.03129233	     -0.28187163	     -1.68264828	     -1.07912728	      6.89743285	    -22.51006299	      5.16310740	     12.42957879	     25.88727657	     35.06094461	      1.29706883	     -0.82694494	    -14.10544175	     -5.73859588	     -2.39435613	      7.52295136	     10.92369505	     -3.17707422	     14.31947347
      5.64500000	    -11.98844228	      3.64245341	     -4.74508715	     -1.76349349	     -0.03129281	     -0.28303546	     -1.48861845	     -1.70286584	      6.20042515	    -23.27156484	      4.27259286	     13.27253718	     26.94100686	     35.13087441	      1.96606892	     -0.34223751	    -14.69157875	     -6.25320717	     -2.68503015	      7.44702161	     11.15826520	     -3.66806994	     14.12244458
      5.65000000	    -12.04053083	      4.03097966	     -4.49063141	     -1.75721960	     -0.03123816	     -0.28414806	     -1.28238693	     -2.32568290	      5.42543090	    -24.09897460	      3.37495191	     14.22915381	     27.80837020	     35.19570460	      2.61928568	      0.08889607	    -15.33887354	     -6.56661802	     -2.71896056	      7.27144389	     11.36281381	     -4.15666422	     13.94271890
      5.65500000	    -12.05912027	      4.38132003	     -4.21131111	     -1.75093130	     -0.03113477	     -0.28522353	     -1.08625550	     -2.91851098	      4.59280976	    -24.99691634	      2.46829264	     15.27865358	     28.36130876	     35.22913508	      3.24912310	      0.55701346	    -16.02047918	     -6.75519426	     -2.58980316	      7.15942922	     11.52416203	     -4.62201066	     13.75488809
      5.66000000	    -12.07959085	      4.76952265	     -3.88860062	     -1.74451893	     -0.03094922	     -0.28639069	     -0.89357502	     -3.56541118	      3.74724107	    -25.85066898	      1.22022165	     16.15301037	     29.47635603	     35.21418088	      3.98155331	      1.22314588	    -16.64209546	     -7.01465711	     -2.82885626	      6.55601631	     11.70535124	     -5.13257356	     13.51189729
      5.66500000	    -12.07493041	      5.09950265	     -3.56869022	     -1.73811165	     -0.03075016	     -0.28750076	     -0.69053308	     -4.16647749	      2.84269358	    -26.77961512	     -0.08173679	     17.11036628	     30.39941160	     35.17523871	      4.64324960	      1.81561972	    -17.29416341	     -7.09102874	     -2.82177880	      6.04040371	     11.84781837	     -5.58903393	     13.28183012
      5.67000000	    -12.05385464	      5.37648462	     -3.24539086	     -1.73166066	     -0.03053388	     -0.28852833	     -0.48259216	     -4.71183096	      1.95791552	    -27.78673668	     -1.35919999	     18.12546447	     30.72102545	     35.10965426	      5.23230471	      2.28166260	    -17.93545688	     -7.13275583	     -2.65137625	      5.92178454	     11.97514119	     -5.99947619	     13.02904583
      5.67500000	    -12.02629837	      5.61852742	     -2.91163255	     -1.72532732	     -0.03030279	     -0.28971429	     -0.22921833	     -5.25399385	      1.00028872	    -28.83584962	     -2.90856291	     19.03048372	     31.52236318	     34.98226859	      5.84941353	      3.05692589	    -18.49778870	     -7.24430334	     -2.97112906	      5.35605769	     12.05975044	     -6.35790886	     12.82478613
      5.68000000	    -11.99751204	      5.83915442	     -2.57688180	     -1.71887582	     -0.03006149	     -0.29082782	      0.03263680	     -5.77324356	      0.08230116	    -29.90916025	     -4.60232830	     19.82678875	     32.15085704	     34.82748755	      6.41894411	      3.64548336	    -19.03227480	     -7.21496034	     -3.09648457	      4.92147820	     12.16655109	     -6.70328164	     12.57173966
      5.68500000	    -11.97768507	      6.02366007	     -2.25521049	     -1.71242701	     -0.02982577	     -0.29192717	      0.33799276	     -6.25845900	     -0.78979402	    -31.03737205	     -6.38483659	     20.51529628	     32.54091581	     34.64293613	      6.94205467	      4.20138957	    -19.50074328	     -7.17676598	     -3.29749810	      4.60573447	     12.28181778	     -7.00443380	     12.32358427
      5.69000000	    -11.96961701	      6.18154919	     -1.94104014	     -1.70595623	     -0.02959693	     -0.29301635	      0.68631634	     -6.71757161	     -1.61349692	    -32.21336438	     -8.25401532	     21.06268397	     32.69754429	     34.42553816	      7.42744699	      4.70673198	    -19.89188457	     -7.11239508	     -3.55443715	      4.41315421	     12.41735132	     -7.27621213	     12.06521824
      5.69500000	    -11.95826533	      6.32436308	     -1.65575758	     -1.69967285	     -0.02934476	     -0.29404579	      1.09990901	     -7.15398018	     -2.34661555	    -33.47623120	    -10.17621483	     21.41044701	     32.63849089	     34.18733673	      7.86784093	      5.13874728	    -20.22758481	     -7.08341120	     -3.80159022	      4.30782600	     12.51558675	     -7.52948717	     11.87240410
      5.70000000	    -11.95841101	      6.41221636	     -1.37798699	     -1.69345042	     -0.02912353	     -0.29518608	      1.56388213	     -7.54864207	     -3.05233737	    -34.77964236	    -12.15010972	     21.64882725	     32.51305291	     33.92226761	      8.26516867	      5.61969830	    -20.50025329	     -7.00739559	     -4.18113402	      4.23322912	     12.61613403	     -7.70069009	     11.67112701
      5.70500000	    -11.94171403	      6.51467973	     -1.17476781	     -1.68732226	     -0.02890799	     -0.29623245	      2.08308188	     -7.96458938	     -3.68555322	    -36.16821805	    -14.06629853	     21.69913735	     32.21855809	     33.61366684	      8.61821250	      5.93498501	    -20.70961764	     -6.84246404	     -4.49903530	      4.25897744	     12.69621372	     -7.86542257	     11.56430480
      5.71000000	    -11.98465079	      6.54349097	     -0.88702055	     -1.68130361	     -0.02870056	     -0.29747041	      2.66753758	     -8.28521314	     -4.24130398	    -37.54279374	    -16.04850193	     21.59139326	     31.91547450	     33.33450999	      8.96585668	      6.46119165	    -20.86241685	     -6.78079465	     -5.00997003	      4.25423450	     12.81425180	     -7.95984344	     11.31450941
      5.71500000	    -11.97926609	      6.67476694	     -0.70856975	     -1.67535865	     -0.02848015	     -0.29855673	      3.28867609	     -8.72563261	     -4.72636143	    -39.01951564	    -17.87019137	     21.26592183	     31.48550476	     32.98715550	      9.32200523	      6.68625259	    -20.95172086	     -6.60285839	     -5.31700691	      4.32953308	     12.88564396	     -8.13313261	     11.23016500
      5.72000000	    -12.03406394	      6.70437336	     -0.49322721	     -1.66962993	     -0.02826420	     -0.29967425	      4.00785498	     -9.02166932	     -5.11611352	    -40.50316960	    -19.68832881	     20.70940733	     30.99255586	     32.69181825	      9.61010812	      7.08822138	    -21.01575473	     -6.51673467	     -5.81564465	      4.39261275	     12.98146354	     -8.22046724	     11.04884548
